<svg width="315" height="306" viewBox="0 0 315 306" fill="none" xmlns="http://www.w3.org/2000/svg">
<rect y="55" width="150" height="219" rx="20" fill="#BCE8F1"/>
<rect x="160" y="55" width="155" height="219" rx="20" fill="#BCE8F1"/>
<rect x="44" y="55" width="15" height="220" fill="#95DAE8"/>
<rect x="260" y="55" width="15" height="220" fill="#95DAE8"/>
<path d="M130 78C130 105.614 107.614 128 80 128C52.3858 128 30 105.614 30 78C30 50.3858 52.3858 28 80 28C107.614 28 130 50.3858 130 78Z" fill="#F9D35A"/>
<path d="M289 79C289 106.614 266.614 129 239 129C211.386 129 189 106.614 189 79C189 51.3858 211.386 29 239 29C266.614 29 289 51.3858 289 79Z" fill="#F9D35A"/>
<rect x="59" y="23" width="201" height="283" rx="20" fill="#E1EBF0"/>
<path d="M239 78C239 121.078 204.526 156 162 156C119.474 156 85 121.078 85 78C85 34.9218 119.474 0 162 0C204.526 0 239 34.9218 239 78Z" fill="#F9D35A"/>
<path d="M210.704 138.436C206.97 126.878 200.249 116.849 191.411 109.645C182.574 102.441 172.024 98.3946 161.127 98.0274C150.229 97.6602 139.485 100.99 130.282 107.585C121.079 114.181 113.84 123.74 109.501 135.026L118.688 139.523C122.23 130.31 128.138 122.508 135.65 117.124C143.162 111.741 151.933 109.023 160.828 109.323C169.723 109.622 178.334 112.926 185.548 118.806C192.762 124.686 198.247 132.872 201.295 142.307L210.704 138.436Z" fill="#95DAE8"/>
<circle cx="162" cy="63" r="35" fill="#FFE2C5"/>
<path d="M210.699 138.463C205.518 144.066 197.874 148.673 188.631 151.762C179.387 154.852 168.913 156.302 158.392 155.948C147.87 155.594 137.72 153.45 129.089 149.759C120.458 146.068 113.689 140.976 109.547 135.06L134.984 128.421C137.098 131.441 140.552 134.039 144.958 135.923C149.363 137.807 154.543 138.901 159.914 139.082C165.284 139.262 170.63 138.523 175.347 136.946C180.065 135.369 183.966 133.017 186.611 130.158L210.699 138.463Z" fill="#95DAE8"/>
<ellipse cx="160" cy="128.5" rx="39" ry="20.5" fill="#95DAE8"/>
<rect x="85" y="199" width="150" height="10" rx="5" fill="#353A59"/>
<path d="M85 223C85 220.239 87.2386 218 90 218H230C232.761 218 235 220.239 235 223V223C235 225.761 232.761 228 230 228H90C87.2386 228 85 225.761 85 223V223Z" fill="#353A59"/>
<path d="M9 170C9 167.239 11.2386 165 14 165H59V175H14C11.2386 175 9 172.761 9 170V170Z" fill="#353A59"/>
<path d="M260 165H305C307.761 165 310 167.239 310 170V170C310 172.761 307.761 175 305 175H260V165Z" fill="#353A59"/>
<path d="M260 189H305C307.761 189 310 191.239 310 194V194C310 196.761 307.761 199 305 199H260V189Z" fill="#353A59"/>
<path d="M260 213H305C307.761 213 310 215.239 310 218V218C310 220.761 307.761 223 305 223H260V213Z" fill="#353A59"/>
<path d="M9 194C9 191.239 11.2386 189 14 189H59V199H14C11.2386 199 9 196.761 9 194V194Z" fill="#353A59"/>
<path d="M10 218C10 215.239 12.2386 213 15 213H60V223H15C12.2386 223 10 220.761 10 218V218Z" fill="#353A59"/>
<rect x="85" y="240" width="60" height="10" rx="5" fill="#353A59"/>
</svg>