<svg width="21" height="21" viewBox="0 0 21 21" fill="none" xmlns="http://www.w3.org/2000/svg">
<g clip-path="url(#clip0)">
<path d="M12.9745 8.02519C12.8039 7.85456 12.5265 7.85456 12.3559 8.02519C12.1853 8.19581 12.1853 8.47406 12.3559 8.64382C12.8512 9.13909 13.125 9.79796 13.125 10.4997C13.125 11.9469 11.9473 13.1247 10.5 13.1247C9.7983 13.1247 9.13942 12.8517 8.64416 12.3556C8.47353 12.1849 8.19615 12.1849 8.02552 12.3556C7.8549 12.5253 7.8549 12.8036 8.02552 12.9742C8.68526 13.6357 9.56463 13.9997 10.5 13.9997C12.4303 13.9997 14 12.43 14 10.4997C14 9.56429 13.636 8.68492 12.9745 8.02519Z" fill="black"/>
<path d="M11.1099 7.06007C10.9113 7.02508 10.7083 6.99969 10.5 6.99969C8.56979 6.99969 7.00004 8.56944 7.00004 10.4997C7.00004 10.7079 7.02543 10.9109 7.06128 11.1095C7.09889 11.3213 7.28354 11.4709 7.49092 11.4709C7.51631 11.4709 7.54165 11.4692 7.5679 11.4639C7.80501 11.4219 7.96428 11.1944 7.92228 10.9573C7.89517 10.8085 7.87503 10.6572 7.87503 10.4997C7.87503 9.05244 9.05279 7.87468 10.5 7.87468C10.6575 7.87468 10.8089 7.89482 10.9576 7.92107C11.1904 7.96832 11.4223 7.8038 11.4643 7.56669C11.5063 7.32958 11.347 7.10207 11.1099 7.06007Z" fill="black"/>
<path d="M20.8959 10.2171C20.797 10.0998 18.4301 7.33745 15.1655 5.64609C14.9537 5.53498 14.6869 5.61898 14.5757 5.83423C14.4646 6.04862 14.5486 6.31284 14.7639 6.42399C17.2786 7.72599 19.2876 9.75774 19.9745 10.4997C18.9315 11.6294 14.8269 15.7497 10.5 15.7497C9.03178 15.7497 7.55215 15.3954 6.10052 14.6953C5.88527 14.5895 5.62191 14.6814 5.51691 14.8992C5.41105 15.1163 5.50293 15.3778 5.7208 15.4828C7.29141 16.2415 8.89967 16.6247 10.5001 16.6247C15.8909 16.6247 20.6947 11.0212 20.8968 10.7823C21.035 10.6196 21.0341 10.3807 20.8959 10.2171Z" fill="black"/>
<path d="M13.3709 4.87869C12.3752 4.54356 11.4092 4.37469 10.5 4.37469C5.10915 4.37469 0.305405 9.9782 0.10328 10.2171C-0.0244831 10.3676 -0.0349831 10.5863 0.0787941 10.7499C0.139169 10.8366 1.58554 12.8902 4.09241 14.5553C4.16677 14.6052 4.24991 14.6288 4.33391 14.6288C4.4748 14.6288 4.61392 14.5606 4.69792 14.432C4.8318 14.2316 4.77667 13.9595 4.57541 13.8264C2.73443 12.6023 1.47443 11.1245 1.00279 10.5233C2.00993 9.42957 6.14167 5.24972 10.5 5.24972C11.3146 5.24972 12.187 5.40373 13.0918 5.70733C13.321 5.78957 13.5695 5.66271 13.6456 5.43257C13.7227 5.20333 13.6001 4.95572 13.3709 4.87869Z" fill="black"/>
<path d="M18.2464 2.75327C18.0758 2.58265 17.7984 2.58265 17.6277 2.75327L2.7528 17.6283C2.58218 17.7989 2.58218 18.0763 2.7528 18.2469C2.83856 18.3318 2.95054 18.3747 3.06255 18.3747C3.17456 18.3747 3.28654 18.3318 3.37144 18.2469L18.2464 3.37191C18.417 3.20129 18.417 2.9239 18.2464 2.75327Z" fill="black"/>
</g>
<defs>
<clipPath id="clip0">
<rect width="21" height="21" fill="white"/>
</clipPath>
</defs>
</svg>
